<svg width="16" height="14" viewBox="0 0 16 14" fill="none" xmlns="http://www.w3.org/2000/svg">
<path fill-rule="evenodd" clip-rule="evenodd" d="M10.0587 0.822996C10.1695 0.859861 10.272 0.918194 10.3602 0.994662C10.4484 1.07113 10.5208 1.16424 10.573 1.26866C10.6253 1.37308 10.6564 1.48678 10.6647 1.60325C10.673 1.71972 10.6583 1.83669 10.6214 1.94747L7.06576 12.6144C6.99126 12.8381 6.83093 13.0231 6.62005 13.1286C6.40918 13.2341 6.16501 13.2516 5.94128 13.1771C5.71755 13.1026 5.53258 12.9422 5.42706 12.7314C5.32154 12.5205 5.30411 12.2763 5.3786 12.0526L8.93424 1.38568C8.97111 1.27488 9.02944 1.17243 9.10591 1.08419C9.18238 0.995943 9.27548 0.923628 9.37991 0.871375C9.48433 0.819122 9.59803 0.787955 9.7145 0.779654C9.83097 0.771353 9.94794 0.786081 10.0587 0.822996ZM4.18391 3.70484C4.35055 3.87154 4.44417 4.09759 4.44417 4.3333C4.44417 4.56901 4.35055 4.79507 4.18391 4.96176L2.14564 7.00003L4.18391 9.0383C4.26881 9.1203 4.33653 9.21839 4.38312 9.32684C4.4297 9.43529 4.45422 9.55193 4.45525 9.66996C4.45628 9.78799 4.43378 9.90504 4.38909 10.0143C4.34439 10.1235 4.27839 10.2228 4.19493 10.3062C4.11147 10.3897 4.01222 10.4557 3.90297 10.5004C3.79373 10.5451 3.67668 10.5676 3.55865 10.5666C3.44062 10.5655 3.32398 10.541 3.21553 10.4944C3.10708 10.4478 3.00899 10.3801 2.92699 10.2952L0.260261 7.62849C0.0936159 7.4618 0 7.23574 0 7.00003C0 6.76432 0.0936159 6.53827 0.260261 6.37157L2.92699 3.70484C3.09369 3.5382 3.31974 3.44458 3.55545 3.44458C3.79116 3.44458 4.01721 3.5382 4.18391 3.70484ZM11.8161 3.70484C11.9828 3.5382 12.2088 3.44458 12.4446 3.44458C12.6803 3.44458 12.9063 3.5382 13.073 3.70484L15.7397 6.37157C15.9064 6.53827 16 6.76432 16 7.00003C16 7.23574 15.9064 7.4618 15.7397 7.62849L13.073 10.2952C12.991 10.3801 12.8929 10.4478 12.7845 10.4944C12.676 10.541 12.5594 10.5655 12.4414 10.5666C12.3233 10.5676 12.2063 10.5451 12.097 10.5004C11.9878 10.4557 11.8885 10.3897 11.8051 10.3062C11.7216 10.2228 11.6556 10.1235 11.6109 10.0143C11.5662 9.90504 11.5437 9.78799 11.5448 9.66996C11.5458 9.55193 11.5703 9.43529 11.6169 9.32684C11.6635 9.21839 11.7312 9.1203 11.8161 9.0383L13.8544 7.00003L11.8161 4.96176C11.6494 4.79507 11.5558 4.56901 11.5558 4.3333C11.5558 4.09759 11.6494 3.87154 11.8161 3.70484Z" fill="#D6D7FB"/>
</svg>
