<svg width="16" height="18" viewBox="0 0 16 18" fill="none" xmlns="http://www.w3.org/2000/svg">
<path d="M5.33339 13.4444V11.6667M8.00005 13.4444V9.88889M10.6667 13.4444V8.11111M12.4445 17H3.55561C3.08411 17 2.63193 16.8127 2.29853 16.4793C1.96513 16.1459 1.77783 15.6937 1.77783 15.2222V2.77778C1.77783 2.30628 1.96513 1.8541 2.29853 1.5207C2.63193 1.1873 3.08411 1 3.55561 1H8.52094C8.75667 1.00005 8.98273 1.09373 9.14939 1.26044L13.9618 6.07289C14.1285 6.23955 14.2222 6.4656 14.2223 6.70133V15.2222C14.2223 15.6937 14.035 16.1459 13.7016 16.4793C13.3682 16.8127 12.916 17 12.4445 17Z" stroke="#D6D7FB" stroke-width="2" stroke-linecap="round" stroke-linejoin="round"/>
</svg>
