<svg width="18" height="20" viewBox="0 0 18 20" fill="none" xmlns="http://www.w3.org/2000/svg">
<path d="M6 15V13M9 15V11M12 15V9M14 19H4C3.46957 19 2.96086 18.7893 2.58579 18.4142C2.21071 18.0391 2 17.5304 2 17V3C2 2.46957 2.21071 1.96086 2.58579 1.58579C2.96086 1.21071 3.46957 1 4 1H9.586C9.8512 1.00006 10.1055 1.10545 10.293 1.293L15.707 6.707C15.8946 6.89449 15.9999 7.1488 16 7.414V17C16 17.5304 15.7893 18.0391 15.4142 18.4142C15.0391 18.7893 14.5304 19 14 19Z" stroke="#8F91E7" stroke-width="2" stroke-linecap="round" stroke-linejoin="round"/>
</svg>
