<svg width="28" height="28" viewBox="0 0 28 28" fill="none" xmlns="http://www.w3.org/2000/svg">
<path d="M10.6243 21.2222H17.3742M14 1V2.44444M23.1924 4.80756L22.1712 5.82878M27 14H25.5556M2.44444 14H1M5.82878 5.82878L4.80756 4.80756M8.89244 19.1076C7.88259 18.0974 7.19493 16.8106 6.91641 15.4096C6.63789 14.0087 6.78103 12.5567 7.32772 11.2371C7.87441 9.9175 8.8001 8.78966 9.98775 7.99616C11.1754 7.20265 12.5717 6.77912 14 6.77912C15.4283 6.77912 16.8246 7.20265 18.0123 7.99616C19.1999 8.78966 20.1256 9.9175 20.6723 11.2371C21.219 12.5567 21.3621 14.0087 21.0836 15.4096C20.8051 16.8106 20.1174 18.0974 19.1076 19.1076L18.316 19.8977C17.8635 20.3503 17.5045 20.8876 17.2597 21.4789C17.0148 22.0703 16.8888 22.7041 16.8889 23.3441V24.1111C16.8889 24.8773 16.5845 25.6121 16.0428 26.1539C15.501 26.6956 14.7662 27 14 27C13.2338 27 12.499 26.6956 11.9572 26.1539C11.4155 25.6121 11.1111 24.8773 11.1111 24.1111V23.3441C11.1111 22.0513 10.5969 20.8106 9.684 19.8977L8.89244 19.1076Z" stroke="#D6D7FB" stroke-width="2" stroke-linecap="round" stroke-linejoin="round"/>
</svg>
