<svg width="18" height="18" viewBox="0 0 18 18" fill="none" xmlns="http://www.w3.org/2000/svg">
<path d="M16.9938 11.7945C15.4847 12.4014 13.8306 12.5513 12.237 12.2257C10.6434 11.9002 9.18062 11.1134 8.0305 9.96331C6.88037 8.81319 6.09363 7.35041 5.76806 5.75681C5.44248 4.16321 5.59244 2.50907 6.19929 1C4.41223 1.71982 2.93121 3.03885 2.01012 4.73099C1.08903 6.42312 0.785243 8.38296 1.15083 10.2745C1.51641 12.1661 2.5286 13.8716 4.01388 15.0987C5.49916 16.3257 7.36502 16.9979 9.2916 17C10.9483 17.0001 12.5672 16.5043 13.9398 15.5767C15.3124 14.649 16.3761 13.3318 16.9938 11.7945Z" stroke="#D6D7FB" stroke-width="2" stroke-linecap="round" stroke-linejoin="round"/>
</svg>
