<svg width="16" height="18" viewBox="0 0 16 18" fill="none" xmlns="http://www.w3.org/2000/svg">
<path d="M11.5556 4.55556C11.5556 5.49855 11.181 6.40292 10.5142 7.06971C9.84742 7.73651 8.94305 8.11111 8.00005 8.11111C7.05706 8.11111 6.15269 7.73651 5.4859 7.06971C4.8191 6.40292 4.4445 5.49855 4.4445 4.55556C4.4445 3.61256 4.8191 2.70819 5.4859 2.0414C6.15269 1.3746 7.05706 1 8.00005 1C8.94305 1 9.84742 1.3746 10.5142 2.0414C11.181 2.70819 11.5556 3.61256 11.5556 4.55556ZM8.00005 10.7778C6.34982 10.7778 4.76717 11.4333 3.60028 12.6002C2.43339 13.7671 1.77783 15.3498 1.77783 17H14.2223C14.2223 15.3498 13.5667 13.7671 12.3998 12.6002C11.2329 11.4333 9.65029 10.7778 8.00005 10.7778Z" stroke="#D6D7FB" stroke-width="2" stroke-linecap="round" stroke-linejoin="round"/>
</svg>
