<svg width="30" height="28" viewBox="0 0 30 28" fill="none" xmlns="http://www.w3.org/2000/svg">
<path d="M13.6155 2.00565C14.0523 0.664784 15.9493 0.664784 16.3846 2.00565L18.5961 8.81043C18.6913 9.10232 18.8763 9.35665 19.1247 9.53707C19.3731 9.71749 19.6722 9.81477 19.9792 9.81499H27.1348C28.5456 9.81499 29.1308 11.6203 27.9909 12.4501L22.2023 16.6547C21.9536 16.8355 21.7686 17.0903 21.6737 17.3827C21.5787 17.6751 21.5788 17.99 21.6738 18.2824L23.8838 25.0872C24.3206 26.4295 22.7847 27.5447 21.6447 26.7149L15.8561 22.5103C15.6073 22.3294 15.3076 22.232 15.0001 22.232C14.6925 22.232 14.3928 22.3294 14.144 22.5103L8.35542 26.7149C7.21547 27.5447 5.67952 26.428 6.11628 25.0872L8.32631 18.2824C8.42134 17.99 8.4214 17.6751 8.32646 17.3827C8.23153 17.0903 8.04648 16.8355 7.79782 16.6547L2.00924 12.4501C0.867832 11.6203 1.45601 9.81499 2.8653 9.81499H10.0195C10.3268 9.81507 10.6262 9.71794 10.8749 9.5375C11.1236 9.35706 11.3088 9.10256 11.404 8.81043L13.6155 2.00565Z" stroke="#D6D7FB" stroke-width="2" stroke-linecap="round" stroke-linejoin="round"/>
</svg>
